<?xml version="1.0" encoding="UTF-8"?>
<svg width="31px" height="40px" viewBox="0 0 31 40" version="1.1" xmlns="http://www.w3.org/2000/svg" xmlns:xlink="http://www.w3.org/1999/xlink">
    <!-- Generator: Sketch 57.1 (83088) - https://sketch.com -->
    <title>pointer</title>
    <desc>Created with Sketch.</desc>
    <g id="pointer" stroke="none" stroke-width="1" fill="none" fill-rule="evenodd">
        <g id="Group" transform="translate(2.000000, 2.000000)" fill="#FFFFFF">
            <circle id="Oval" cx="13" cy="13" r="13"></circle>
            <polygon id="Triangle" transform="translate(13.500000, 27.500000) rotate(-180.000000) translate(-13.500000, -27.500000) " points="13.5 20 24 35 3 35"></polygon>
        </g>
        <path d="M15.134443,3.55271368e-15 C23.4929651,3.55271368e-15 30.268886,6.77592094 30.268886,15.134443 C30.268886,26.5428937 17.234315,38.1818182 16.6709347,38.6427657 L15.134443,40 L13.5979513,38.6427657 C13.0345711,38.1818182 -4.01456646e-13,26.5428937 -4.01456646e-13,15.134443 C-4.01456646e-13,6.77592094 6.77592094,3.55271368e-15 15.134443,3.55271368e-15 Z M15.134443,4.66069142 C9.35287454,4.66774642 4.66774642,9.35287454 4.66069142,15.134443 C4.66069142,21.8693982 11.2163892,29.7951344 15.1216389,33.68758 C18.3610755,30.4993598 25.6081946,22.3943662 25.6081946,15.134443 C25.6011396,9.35287454 20.9160115,4.66774642 15.134443,4.66069142 Z M15.134443,10.0128041 C17.9630461,10.0128041 20.2560819,12.3058399 20.2560819,15.134443 C20.2560819,17.9630461 17.9630461,20.2560819 15.134443,20.2560819 C12.3058399,20.2560819 10.0128041,17.9630461 10.0128041,15.134443 C10.0128041,12.3058399 12.3058399,10.0128041 15.134443,10.0128041 Z" id="Combined-Shape" fill="#EC0000"></path>
    </g>
</svg>